<svg xmlns="http://www.w3.org/2000/svg" viewBox="0 0 64 64">
  <defs>
    <linearGradient id="g1" x1="0%" y1="0%" x2="100%" y2="100%">
      <stop offset="0%" stop-color="#b06fff"/>
      <stop offset="100%" stop-color="#ff6ec7"/>
    </linearGradient>
    <linearGradient id="g2" x1="0%" y1="0%" x2="100%" y2="100%">
      <stop offset="0%" stop-color="#06040e"/>
      <stop offset="100%" stop-color="#120a24"/>
    </linearGradient>
  </defs>
  <!-- Фон -->
  <rect width="64" height="64" rx="14" fill="url(#g2)"/>
  <!-- Щит -->
  <path d="M32 8 L52 16 L52 32 C52 44 42 52 32 56 C22 52 12 44 12 32 L12 16 Z" fill="url(#g1)" opacity="0.15"/>
  <path d="M32 8 L52 16 L52 32 C52 44 42 52 32 56 C22 52 12 44 12 32 L12 16 Z" fill="none" stroke="url(#g1)" stroke-width="2"/>
  <!-- Молния -->
  <path d="M35 18 L26 34 L32 34 L29 46 L38 30 L32 30 Z" fill="url(#g1)"/>
</svg>
